<svg width="154" height="60" viewBox="0 0 154 60" fill="none" xmlns="http://www.w3.org/2000/svg">
<g clip-path="url(#clip0_421_77)">
<path d="M73.9106 20.2839C73.9106 18.5763 75.2956 17.1913 77.0083 17.1913C78.7209 17.1913 80.1101 18.5722 80.1101 20.2839V20.5692C81.6196 18.535 83.7013 17.03 86.9235 17.03C92.02 17.03 96.876 21.0157 96.876 28.2966V28.3793C96.876 35.6601 92.1029 39.6458 86.9235 39.6458C83.6184 39.6458 81.5781 38.1408 80.1101 36.3919V42.8997C80.1101 44.6072 78.7251 45.9923 77.0083 45.9923C75.2956 45.9923 73.9106 44.6113 73.9106 42.8997V20.2839ZM90.6722 28.3751V28.2924C90.6722 24.6747 88.2256 22.2726 85.3269 22.2726C82.4282 22.2726 80.023 24.6706 80.023 28.2924V28.3751C80.023 31.9928 82.4282 34.395 85.3269 34.395C88.2256 34.395 90.6722 32.0383 90.6722 28.3751Z" fill="white"/>
<path d="M98.9121 12.234C98.9121 10.4437 100.422 9.34808 102.379 9.34808C104.336 9.34808 105.846 10.4479 105.846 12.234V12.3167C105.846 14.1069 104.336 15.2439 102.379 15.2439C100.422 15.2439 98.9121 14.1069 98.9121 12.3167V12.234ZM99.2812 20.2839C99.2812 18.5763 100.666 17.1912 102.383 17.1912C104.096 17.1912 105.481 18.5722 105.481 20.2839V36.3878C105.481 38.0953 104.096 39.4804 102.383 39.4804C100.67 39.4804 99.2812 38.0995 99.2812 36.3878V20.2839Z" fill="white"/>
<path d="M108.865 20.2839C108.865 18.5763 110.25 17.1913 111.966 17.1913C113.679 17.1913 115.064 18.5722 115.064 20.2839V20.5692C116.574 18.535 118.655 17.03 121.878 17.03C126.974 17.03 131.83 21.0157 131.83 28.2966V28.3793C131.83 35.6601 127.057 39.6458 121.878 39.6458C118.572 39.6458 116.532 38.1408 115.064 36.3919V42.8997C115.064 44.6072 113.679 45.9923 111.966 45.9923C110.254 45.9923 108.865 44.6113 108.865 42.8997V20.2839ZM125.63 28.3751V28.2924C125.63 24.6747 123.184 22.2726 120.285 22.2726C117.391 22.2726 114.981 24.6706 114.981 28.2924V28.3751C114.981 31.9928 117.386 34.395 120.285 34.395C123.18 34.395 125.63 32.0383 125.63 28.3751Z" fill="white"/>
<path d="M132.647 32.9726V32.89C132.647 28.1311 136.275 25.9357 141.459 25.9357C143.661 25.9357 145.253 26.3037 146.804 26.8288V26.4608C146.804 23.8974 145.212 22.4751 142.114 22.4751C140.402 22.4751 139.012 22.7191 137.831 23.087C137.466 23.2111 137.217 23.2483 136.935 23.2483C135.508 23.2483 134.364 22.1485 134.364 20.7262C134.364 19.6264 135.056 18.692 136.035 18.3282C137.992 17.5964 140.115 17.1912 143.01 17.1912C146.394 17.1912 148.845 18.0843 150.391 19.6306C152.021 21.2554 152.755 23.6576 152.755 26.5848V36.5077C152.755 38.1739 151.407 39.4762 149.736 39.4762C147.941 39.4762 146.759 38.2152 146.759 36.9128V36.8715C145.249 38.5377 143.168 39.6375 140.153 39.6375C136.031 39.6416 132.647 37.2849 132.647 32.9726ZM146.879 31.5504V30.4506C145.817 29.9627 144.432 29.6361 142.923 29.6361C140.273 29.6361 138.639 30.6945 138.639 32.646V32.7287C138.639 34.3949 140.024 35.3707 142.023 35.3707C144.922 35.3707 146.879 33.7871 146.879 31.5504Z" fill="white"/>
<path d="M99.6213 46.2941C99.5881 46.1412 99.6378 46.0709 99.8079 46.0874C101.23 46.1742 103.117 45.6781 104.075 45.6616C104.797 45.645 105.174 45.9344 105.377 46.5009C105.427 46.6373 105.394 46.7572 105.19 46.7241C103.955 46.7076 102.756 47.0135 101.711 47.1872C101.027 48.2126 100.185 49.701 99.3434 51.2225C99.8079 51.1357 100.252 51.1026 100.563 51.086C101.421 51.053 101.798 51.3258 101.968 51.8551C102.018 52.008 102.018 52.1114 101.798 52.1114C100.874 52.1114 99.5881 52.3512 98.626 52.591C98.1284 53.5502 97.6639 54.4887 97.3073 55.2908C98.1284 55.0345 99.2605 54.7947 99.9654 54.7616C100.807 54.7285 101.234 55.0014 101.421 55.5141C101.471 55.6671 101.454 55.7704 101.251 55.7704C100.289 55.7539 98.4228 56.1963 97.4607 56.4526C97.1331 56.5395 96.9465 56.5395 96.7392 56.2831C96.6023 56.1301 96.4987 55.8738 96.3784 55.6505C96.225 55.3611 96.225 55.1379 96.395 54.6748C97.1829 52.5745 98.8997 49.395 100.339 47.1707C99.9157 46.9929 99.7249 46.6538 99.6213 46.2941Z" fill="white"/>
<path d="M104.407 50.1557C104.199 50.1392 103.515 50.7718 103.001 51.917C102.93 52.07 102.777 52.0865 102.727 51.9501C102.64 51.7103 102.711 51.3341 102.831 51.0281C103.159 50.2095 104.15 49.3371 105.008 49.4901C105.539 49.5934 105.763 49.9325 105.916 50.6849C106.003 51.0943 106.086 51.6069 106.157 52.1568C107.081 51.4043 108.01 50.5692 108.728 49.643C108.898 49.4198 109.072 49.4032 109.072 49.6761C109.072 50.2384 108.728 50.7346 108.147 51.4043C107.77 51.8302 107.086 52.3801 106.277 53.0292C106.397 53.7486 106.484 54.4474 106.567 54.8939C106.704 55.5761 106.911 55.8159 107.115 55.8324C107.749 55.8655 108.487 54.6169 108.985 53.575C109.055 53.422 109.192 53.4055 109.242 53.5419C109.329 53.7486 109.329 54.1579 109.089 54.6169C108.574 55.6257 107.683 56.4112 106.824 56.4112C105.916 56.4112 105.435 55.882 105.232 54.4639C105.215 54.3605 105.199 54.1745 105.161 53.9677C104.32 54.6706 103.482 55.4562 102.798 56.3079C102.661 56.4609 102.371 56.5477 102.404 56.2583C102.454 55.6753 102.798 55.1626 103.432 54.4804C103.843 54.038 104.411 53.575 105.045 53.0623C104.85 51.7806 104.577 50.1723 104.407 50.1557Z" fill="white"/>
<path d="M115.599 53.5751C115.703 53.3353 115.889 53.4056 115.927 53.5751C115.96 53.7281 115.997 54.1746 115.703 54.7038C115.052 55.8821 113.887 56.4486 112.651 56.5313C111.552 56.6015 110.834 56.4444 110.233 55.8987C109.872 55.572 109.702 55.1793 109.648 54.7534C108.844 56.2212 107.969 57.9659 107.144 59.8637C107.073 60.0166 106.957 60.0497 106.853 59.8967C106.596 59.537 106.509 59.0574 106.837 58.0155C107.351 56.3576 110.233 50.9414 111.311 49.5026C111.481 49.2793 111.639 49.3165 111.722 49.5191C111.809 49.7424 111.842 49.9987 111.826 50.2881C112.58 49.639 113.592 49.1594 114.33 49.9284C115.151 50.8008 114.774 52.3223 114.144 53.7239C113.629 54.8526 112.995 55.6713 112.344 56.0641C114.023 55.969 115.052 54.7369 115.599 53.5751ZM110.577 55.539C111.125 55.9814 112.24 54.7369 113.045 53.0955C113.712 51.727 113.903 50.3088 113.472 50.1062C113.061 49.8995 111.996 50.7553 111.191 52.0701C111.004 52.3761 110.814 52.6862 110.606 53.0459C110.183 54.1208 110.096 55.1462 110.577 55.539Z" fill="white"/>
<path d="M124.461 56.3948C123.159 56.3245 122.645 55.1627 123.072 53.7776C123.433 52.6324 124.461 51.3672 125.199 50.5486C124.444 51.0282 123.673 51.1977 123.142 51.1977C121.72 54.1704 119.866 56.3245 117.826 56.3576C115.649 56.3907 114.911 54.2738 116.026 52.0866C117.104 49.9656 118.854 49.0105 119.713 49.5067C120.14 49.763 120.451 50.0028 120.725 50.3791C121.015 50.7884 120.845 51.7972 120.161 52.6696C119.356 53.7115 118.207 54.1415 117.005 53.1823C116.457 54.7369 116.885 55.849 117.76 55.8821C119.646 55.9689 121.529 53.2691 122.475 51.0943C121.156 50.5486 122.835 48.2746 123.553 48.2415C124.084 48.225 123.914 49.2669 123.482 50.3791C124.084 50.2922 124.681 50.0194 125.353 49.577C125.56 49.4405 125.713 49.3537 125.834 49.5274C126.178 49.9036 126.605 50.7222 126.091 51.2887C125.286 52.1776 124.411 53.3394 124.121 54.2614C123.831 55.1999 124.034 55.8862 124.548 55.9028C125.27 55.9359 126.14 54.8071 126.692 53.5461C126.762 53.4097 126.879 53.3766 126.949 53.5296C127.036 53.7156 127.069 54.1622 126.862 54.6418C126.435 55.6588 125.406 56.4444 124.461 56.3948ZM119.182 51.9667C119.729 51.2639 120.09 50.3791 119.866 50.1889C119.489 49.8623 118.083 50.9414 117.295 52.5125C117.245 52.5993 117.208 52.7192 117.158 52.8019C118 53.3187 118.668 52.6158 119.182 51.9667Z" fill="white"/>
<path d="M126.518 53.8975C126.945 52.6488 128.077 50.6312 128.712 49.7423C128.865 49.5355 128.985 49.4859 129.122 49.6389C129.379 49.9118 129.516 50.6477 129.106 51.5036C128.745 52.2561 128.027 53.4179 127.667 54.2737C127.256 55.266 127.289 55.9316 127.837 55.8986C128.608 55.8655 129.549 54.7368 130.063 53.5584C130.151 53.4055 130.271 53.422 130.337 53.5584C130.474 53.8313 130.424 54.191 130.217 54.6169C129.703 55.6753 128.625 56.3947 127.662 56.3947C126.364 56.3947 126.041 55.2991 126.518 53.8975ZM130.341 49.4405C130.117 49.6803 129.636 49.6265 129.379 49.1841C129.106 48.721 129.193 48.2084 129.466 47.919C129.74 47.6295 130.238 47.8321 130.462 48.2952C130.686 48.7376 130.565 49.2007 130.341 49.4405Z" fill="white"/>
<path d="M132.278 55.9151C133.7 55.9854 134.953 54.6169 135.691 53.4881C135.778 53.3517 135.915 53.3517 135.981 53.5047C136.052 53.6411 135.998 54.1207 135.691 54.5631C134.969 55.605 133.65 56.3906 132.332 56.4071C130.155 56.4402 129.4 54.3068 130.515 52.0989C131.631 49.8953 133.377 49.0063 134.235 49.5025C134.662 49.7588 134.973 50.0151 135.247 50.3914C135.554 50.8007 135.417 51.8426 134.7 52.715C133.858 53.7403 132.709 54.1827 131.511 53.2111C130.959 54.7864 131.37 55.8655 132.278 55.9151ZM133.7 51.9832C134.248 51.2638 134.625 50.3749 134.384 50.1888C134.024 49.8994 132.601 50.9247 131.797 52.5455C131.747 52.6488 131.693 52.7522 131.66 52.8349C132.502 53.3682 133.203 52.6364 133.7 51.9832Z" fill="white"/>
<path d="M140.663 49.4405C141.227 49.5273 141.762 50.3625 141.331 51.2514C140.97 52.0039 140.132 53.2691 139.738 54.158C139.294 55.1503 139.394 55.9524 140.012 55.9193C140.717 55.8862 141.554 54.7575 142.206 53.5626C142.293 53.4096 142.413 53.4096 142.496 53.5461C142.616 53.7321 142.583 54.129 142.342 54.621C141.878 55.5803 140.8 56.4485 139.805 56.4485C138.349 56.4485 138.005 55.3901 138.502 53.9016C139.066 52.2272 140.576 50.4162 140.269 50.2798C140.099 50.2095 139.104 50.6891 138.005 51.8881C136.993 52.9838 136.238 54.621 135.5 56.2294C135.43 56.3823 135.33 56.4526 135.172 56.2997C134.828 55.9565 134.729 55.3942 135.002 54.5384C135.347 53.4634 136.665 51.086 137.744 49.4942C137.864 49.3082 138.001 49.3247 138.104 49.4942C138.361 49.9201 138.345 50.5031 138.154 51.1191C138.93 50.2922 140.095 49.3537 140.663 49.4405Z" fill="white"/>
<path d="M147.174 50.4824C147.534 51.2018 146.846 52.1073 146.506 53.0293C146.435 53.236 146.369 53.2856 146.145 53.1657C145.735 52.959 145.494 52.4463 145.735 51.6773C145.921 51.0613 146.44 50.3253 146.199 50.1393C145.909 49.8995 144.623 50.9951 143.852 52.5497C142.911 54.4805 143.267 55.8986 144.279 55.9152C145.718 55.9317 146.954 54.5632 147.655 53.4882C147.742 53.3518 147.895 53.3352 147.961 53.5048C148.011 53.6412 147.945 54.0671 147.655 54.5301C147.003 55.5389 145.647 56.3741 144.345 56.3948C142.168 56.4279 141.43 54.311 142.546 52.1032C143.645 49.9491 145.374 49.0271 146.232 49.5398C146.697 49.8126 146.97 50.0897 147.174 50.4824Z" fill="white"/>
<path d="M149.678 55.9151C151.101 55.9854 152.353 54.6169 153.091 53.4881C153.178 53.3517 153.315 53.3517 153.381 53.5047C153.452 53.6411 153.398 54.1207 153.091 54.5631C152.369 55.605 151.051 56.3906 149.732 56.4071C147.555 56.4402 146.8 54.3068 147.916 52.0989C149.031 49.8953 150.777 49.0063 151.636 49.5025C152.063 49.7588 152.374 50.0151 152.647 50.3914C152.954 50.8007 152.817 51.8426 152.1 52.715C151.258 53.7403 150.109 54.1827 148.911 53.2111C148.359 54.7864 148.77 55.8655 149.678 55.9151ZM151.101 51.9832C151.648 51.2638 152.025 50.3749 151.785 50.1888C151.424 49.8994 150.002 50.9247 149.197 52.5455C149.147 52.6488 149.093 52.7522 149.06 52.8349C149.902 53.3682 150.603 52.6364 151.101 51.9832Z" fill="white"/>
<path d="M10.0155 16.9432C10.0155 16.2321 9.4349 15.6491 8.71749 15.6491H1.89172C1.17431 15.6533 0.59375 16.2321 0.59375 16.9432C0.59375 17.6544 1.17431 18.2373 1.89172 18.2373H8.72163C9.4349 18.2373 10.0155 17.6585 10.0155 16.9432ZM14.295 7.06588H21.1208C21.8341 7.06588 22.4188 6.48705 22.4188 5.77178C22.4188 5.05651 21.8382 4.47767 21.1208 4.47767H14.295C13.5818 4.47767 12.9971 5.05651 12.9971 5.77178C12.9971 6.48705 13.5818 7.06588 14.295 7.06588ZM10.397 26.8247H6.16716C5.45389 26.8247 4.86918 27.4035 4.86918 28.1188C4.86918 28.8341 5.44975 29.4129 6.16716 29.4129H10.3928C11.1061 29.4129 11.6908 28.8341 11.6908 28.1188C11.6908 27.4035 11.1102 26.8247 10.397 26.8247ZM9.19438 38.0251H6.31644C5.60318 38.0251 5.01847 38.6039 5.01847 39.3192C5.01847 40.0345 5.59903 40.6133 6.31644 40.6133H9.19852C9.91179 40.6133 10.4965 40.0345 10.4965 39.3192C10.4965 38.6039 9.91179 38.0251 9.19438 38.0251ZM62.5357 6.7806C57.8497 2.40628 51.6709 0 45.1395 0C40.1301 0 35.328 1.47602 31.2516 4.26681L31.0609 4.39912H24.7618C24.0775 4.39912 23.526 4.95314 23.526 5.6312C23.526 6.30926 24.0817 6.86329 24.7618 6.86329H29.0165L25.3216 9.90628C24.1688 11.374 23.1777 13.0196 22.3815 14.8057L22.1824 15.2481H12.9556C12.2714 15.2481 11.7198 15.8021 11.7198 16.4802C11.7198 17.1623 12.2755 17.7122 12.9556 17.7122H23.8412L23.8577 17.6998L20.6522 20.5485C20.4449 21.8716 20.3412 23.1491 20.3412 24.4432C20.3412 24.6045 20.3536 24.7657 20.3619 24.9352C20.3702 25.0634 20.3785 25.1916 20.3827 25.3197L20.4117 26.0929H14.3987C13.7145 26.0929 13.1629 26.6469 13.1629 27.325C13.1629 28.003 13.7186 28.5571 14.3987 28.5571H23.5011L23.5923 28.4785L21.2328 31.0212C21.7055 32.6916 22.3773 34.3164 23.2399 35.8586L23.8577 36.9667H13.4159C12.7317 36.9667 12.1801 37.5207 12.1801 38.1987C12.1801 38.8809 12.7358 39.4308 13.4159 39.4308H28.7428L27.2872 41.3658L27.6065 41.6841C27.6273 41.7048 27.6521 41.7296 27.6729 41.7503C27.6895 41.7668 27.7102 41.7834 27.7268 41.804L27.8097 41.8867C32.4708 46.4388 38.7699 48.9402 45.5791 48.9402C50.7876 48.9402 55.3284 47.7164 59.8734 45.0827C60.3793 44.7809 60.6572 44.3219 60.6572 43.7927C60.6572 42.9534 59.9688 42.2175 59.185 42.2175C58.9486 42.2175 58.592 42.2878 58.339 42.4449L58.3142 42.4614C54.1424 44.8222 50.4558 45.7897 45.5791 45.7897C39.4915 45.7897 33.9305 43.586 29.9163 39.5879C25.9768 35.6601 23.8038 30.3101 23.8038 24.5218C23.8038 18.7789 25.9685 13.4165 29.9039 9.41841C33.8849 5.37073 39.2924 3.14223 45.1354 3.14223C50.8871 3.14223 56.2739 5.21362 60.3047 8.98015C64.1488 12.5689 66.355 17.3939 66.355 22.223C66.3259 24.5383 66.0025 26.5436 65.3929 28.1891L65.3763 28.2304C62.8508 33.9402 55.1169 34.7092 54.2295 34.7795C53.7733 34.8084 53.3047 34.8208 52.832 34.8208C52.0524 34.8208 51.2437 34.7836 50.4309 34.7092C48.3451 34.519 46.8439 34.151 46.5992 34.089C46.1306 34.0063 45.6703 33.8988 45.2349 33.7624C42.4026 32.8776 40.8724 30.9964 40.0845 29.5783C39.7901 29.0491 39.5495 28.495 39.3671 27.9245C39.2883 27.6681 39.2219 27.4118 39.1639 27.1596L38.9648 26.2541H57.4019C57.4309 25.8283 57.4516 25.4148 57.4516 25.0551C57.4516 18.8658 54.3124 11.6386 45.4588 11.6386C38.5128 11.6386 33.2712 17.1541 33.2712 24.4722V24.5714C33.2712 25.9689 33.4578 27.3126 33.8268 28.5695C34.8719 32.121 37.3268 34.8539 40.7397 36.2679L40.7729 36.2845C44.5465 38.0747 48.7266 38.3434 50.883 38.3434C51.7579 38.3434 52.2887 38.298 52.297 38.298L52.3468 38.2938C58.7994 38.1491 63.56 36.2472 66.5084 32.6213C68.3621 30.339 69.4319 27.1265 69.602 23.3269C69.6186 22.9548 69.6269 22.5827 69.6269 22.223C69.6351 16.6207 67.0475 10.9937 62.5357 6.7806ZM39.0643 22.2561C39.7361 18.3944 42.1289 16.0915 45.463 16.0915C47.1715 16.0915 48.6602 16.6993 49.7674 17.8528C50.8042 18.9319 51.476 20.4658 51.7206 22.285L51.8326 23.1284H38.9151L39.0643 22.2561Z" fill="white"/>
</g>
<defs>
<clipPath id="clip0_421_77">
<rect width="152.812" height="60" fill="white" transform="translate(0.59375)"/>
</clipPath>
</defs>
</svg>
